<svg xmlns="http://www.w3.org/2000/svg" width="1306.504" height="615.789" preserveAspectRatio="xMidYMid" version="1.0" viewBox="0 0 979.878 461.842"><defs><path id="a" d="M1063.021 491.257h657.2v354.888h-657.2z"/></defs><g style="fill:#fff;fill-opacity:1;stroke:none;stroke-opacity:1"><path d="M5071 8734c-30-25-31-28-31-107 0-135 6-155 49-168 24-7 53-8 82-2 38 8 45 13 55 43 6 19 15 72 18 118l7 83-31 29c-43 40-104 42-149 4M4990 8280c-19-5-100-21-179-35-349-64-691-201-953-384-107-74-367-332-455-451-31-41-75-100-98-130-97-126-213-344-280-525-104-279-178-792-145-1010 16-112 83-354 136-498 123-331 352-646 639-881 299-245 596-400 930-486 164-42 299-53 622-48 292 5 341 12 553 73 280 82 571 234 793 414 76 62 249 238 295 301 15 19 54 69 88 111 34 41 70 91 79 110 10 19 32 54 50 79 157 218 305 709 305 1014 0 116-30 381-60 541-33 168-82 307-173 487-179 351-355 590-580 785-291 251-682 438-1052 502-212 36-435 50-515 31m10-244c0-5 19-49 41-98 45-98 69-175 69-225 0-30-3-33-31-33-16 0-28-4-25-9s16-7 28-4c31 9 48-22 48-87v-57l-87-7c-49-4-151-20-228-35-77-16-141-28-142-27s12 40 28 86c59 166 109 386 109 482v37l68 3c68 3 122-8 122-26m520-2c295-68 495-158 748-337 201-142 353-303 508-538 164-248 280-527 340-814 24-113 28-153 28-305 0-215-16-361-55-505-134-496-410-895-799-1157-128-86-410-226-541-268-253-81-355-97-619-99-147-1-207 3-295 19-159 29-284 63-415 113-138 53-209 88-345 171-344 211-591 466-758 786-75 142-163 368-187 476-60 279-49 598 31 899 31 115 121 372 143 409 7 11 39 68 71 126 33 58 79 132 104 165 72 96 173 216 178 212 5-6-42-238-62-307-20-66-129-278-190-369-24-36-72-97-106-136-33-38-75-90-91-114l-31-44 47 5c106 12 231 103 406 295 93 103 117 133 213 278 106 158 213 397 267 594 39 145 70 212 111 243 42 32 119 71 126 64 9-9-16-431-32-526-21-128-21-127-63-141-122-39-312-185-312-240 0-19 6-28 22-32 22-6 99 16 178 52 54 24 67 19 40-19-11-15-35-55-54-88-30-53-169-248-186-262-3-3-21-27-40-54l-33-49 36 6c20 3 49 12 64 19 25 12 31 11 62-9 19-13 45-23 58-23 35 0 115 79 181 180 31 47 84 123 117 170s71 109 84 138c25 54 53 68 66 35 3-10 10-65 15-123 15-167 54-259 156-369 99-108 202-156 357-167 205-15 384 73 508 249 91 130 120 274 89 451-11 61-30 132-43 158-16 33-20 48-11 48 19 0 180-58 253-91 74-34 245-145 279-182l24-25-78-149c-103-196-131-240-232-356l-84-98 59 29c127 65 237 149 368 283 72 73 160 159 198 191 37 33 67 65 67 72 0 17 22 26 64 26 47 0 130 27 150 49 16 18 16 20-14 41-40 28-256 139-383 196-284 128-657 234-823 234-72 0-75 5-53 85 14 48 22 55 76 55 23 0 45 5 48 10 4 6-12 10-42 10-26 0-52 4-58 8s-9 76-7 190c3 166 5 183 20 177 9-3 46-13 82-21m-444-805c48-23 100-92 110-146 18-96-25-190-103-225-89-39-186-1-233 93-47 90-34 179 35 246 60 57 119 67 191 32m-212-439c71-79 32-161-41-84-35 37-45 88-21 112 18 18 22 16 62-28m543 8c-3-8-6-5-6 6-1 11 2 17 5 13 3-3 4-12 1-19m-19-98c-14-22-24-19-15 5 4 8 11 15 17 15s6-7-2-20" style="fill:#fff;fill-opacity:1;stroke:none;stroke-opacity:1" transform="matrix(.06733 0 0 -.06492 -128.27 570)"/><path d="M6200 6240c-11-7-14-24-13-61 3-70 22-96 75-103 135-17 591-66 615-66 22 0 33 9 51 40 38 67 32 87-40 120-55 25-82 31-203 40-122 9-219 17-420 35-27 2-57 0-65-5M4662 6200l-23-21 3-646 3-645 24-19c13-10 32-19 43-19 25 0 160 77 428 245 449 280 517 322 570 352 31 18 66 44 80 58 23 24 24 28 9 53-17 31-5 24-439 284-690 413-657 396-698 358M6185 5797c-17-14-28-36-32-62-7-60 19-80 132-99 128-21 342-69 469-105 60-17 110-31 112-31 3 0 74 152 74 159 0 8-93 45-185 75-71 23-456 86-526 86-10 0-30-10-44-23M6095 5373c-23-35-46-103-39-115 4-5 57-33 118-62 116-55 256-135 365-211 36-25 71-45 78-45s30 26 49 58c20 31 46 67 57 80 20 22 20 22 1 37-66 51-401 210-546 260l-67 23zM5815 4949c-19-33-35-65-34-72 0-7 40-47 89-89s118-108 152-146c35-39 84-89 110-112l48-41 75 77c41 42 75 78 75 80 0 4-226 192-334 276-61 48-119 88-128 88-10 0-31-24-53-61M6663 8111c-155-3-284-9-288-13-4-3 27-31 68-61 74-55 179-143 293-247 87-79 209-220 285-330 101-145 253-413 304-535 64-151 66-155 87-155 10 0 18 1 19 3 0 1 3 225 6 498 6 561 6 557-68 668-48 71-122 131-194 156-61 22-137 24-512 16M3046 8094c-100-31-158-84-208-189l-33-70-3-542c-3-495-2-544 13-549 21-8 38 16 60 85 50 161 215 450 381 671 112 149 399 416 583 544l75 51-175 6c-335 12-639 9-693-7M2003 5962c-12-2-36-16-53-32-40-38-40-77 1-116l30-29 317-5c349-6 347-6 376 54 14 31 15 39 3 68-27 64-20 63-351 63-166 0-311-1-323-3M7587 5942c-38-40-37-88 3-129l30-31 333-4c182-3 342-1 354 3 25 9 63 64 63 92 0 9-15 34-34 55l-34 37-344 3-343 3zM7665 5537c-46-46-48-91-6-131 32-31 106-45 242-46 89 0 109 14 109 74 0 42-18 82-49 110-19 17-41 21-141 24l-120 4zM2373 5553c-73-5-113-43-113-105 0-71 14-78 156-78 157 0 168 6 172 87 5 103-11 110-215 96" style="fill:#fff;fill-opacity:1;stroke:none;stroke-opacity:1" transform="matrix(.06733 0 0 -.06492 -128.27 570)"/><path d="M7383 5182c-6-4-14-18-18-32s-34-79-68-145c-141-280-402-614-647-826-76-65-282-199-425-275-133-70-247-115-440-173-255-77-346-91-605-91-406 0-699 66-1056 239-409 199-694 424-951 753-100 128-143 197-229 370-84 171-78 160-97 172-42 27-42 28-42-853 0-706 2-842 14-865 13-24 12-31-8-72-99-197-49-508 108-673 51-55 162-115 241-132l50-11v-296c-1-163-5-357-10-431-9-136-5-163 25-174 17-7 51 25 98 93 39 58 214 248 241 262 17 9 24 5 49-23 17-19 59-65 94-102s91-104 124-148c46-61 65-79 84-79 36 0 48 32 41 109-8 96-11 1299-3 1308 4 4 246 8 537 9 292 2 535 6 540 9 17 10 12 91-7 106-13 12-159 14-875 12-803-2-862-3-896-20-45-22-75-69-53-82 12-8 13-37 8-167-4-87-10-161-15-166-12-12-105 55-135 100-90 130-93 318-6 402 28 27 145 83 207 100 33 8 47 8 58-1 25-21 1214-32 2582-24l1262 7v33c0 31 4 35 73 68 146 69 185 134 199 332 11 138 4 1328-7 1357-8 19-28 29-42 20M3672 3103c-40-2-103-2-140 0s-4 3 73 3 107-2 67-3M7815 4331c-50-23-80-52-104-99-40-80-35-136 18-209 73-101 228-107 320-12 60 61 75 133 42 204-51 111-175 163-276 116m129-153c35-50 5-102-56-96-37 3-45 23-33 84 5 31 9 34 40 34 24 0 39-7 49-22" style="fill:#fff;fill-opacity:1;stroke:none;stroke-opacity:1" transform="matrix(.06733 0 0 -.06492 -128.27 570)"/><path d="M5312 3223c-34-7-46-47-26-89 9-19 21-34 28-34 6 0 398-2 871-4s881-7 907-11c42-7 49-5 72 18 31 31 33 66 7 98l-19 24-909 1c-499 1-918 0-931-3M4125 2936c-3-12-2-43 3-71l7-50 1495 3c1109 2 1504 6 1528 15 30 10 33 15 28 41-4 17-13 40-21 53l-15 23h-618c-339-1-1019 1-1510 3l-892 4zM7245 2758c-22-11-47-26-55-33-12-10-323-14-1542-19-839-3-1539-9-1556-12l-29-6 5-71c7-98 20-114 101-123 75-8 2924 3 2961 12 126 30 209 76 245 139 30 51 32 88 5 115-26 26-83 25-135-2" style="fill:#fff;fill-opacity:1;stroke:none;stroke-opacity:1" transform="matrix(.06733 0 0 -.06492 -128.27 570)"/></g><text xml:space="preserve" style="font-style:normal;font-variant:normal;font-weight:700;font-stretch:normal;font-size:192px;font-family:&quot;Segoe Script&quot;;-inkscape-font-specification:&quot;Segoe Script, Bold&quot;;font-variant-ligatures:normal;font-variant-caps:normal;font-variant-numeric:normal;font-variant-east-asian:normal;white-space:pre;shape-inside:url(#a);display:inline;fill:#fff;fill-opacity:1;stroke:none;stroke-opacity:1" transform="matrix(1.33355 0 0 2.02011 -966.18 -965.035)"><tspan x="1063.022" y="660.35">Ani</tspan></text></svg>